<?xml version="1.0" encoding="UTF-8"?>
<svg width="20px" height="20px" viewBox="0 0 20 20" version="1.1" xmlns="http://www.w3.org/2000/svg" xmlns:xlink="http://www.w3.org/1999/xlink">
    <!-- Generator: Sketch 52.5 (67469) - http://www.bohemiancoding.com/sketch -->
    <title>delete-cross copy</title>
    <desc>Created with Sketch.</desc>
    <g id="Page-1" stroke="none" stroke-width="1" fill="none" fill-rule="evenodd">
        <g id="buscador" transform="translate(-969.000000, -46.000000)" fill="#000000">
            <g id="delete-cross-copy" transform="translate(969.000000, 46.000000)">
                <path d="M0.17653012,19.7897349 C0.294168675,19.9073253 0.448337349,19.9661687 0.602506024,19.9661687 C0.756674699,19.9661687 0.910843373,19.9073253 1.02848193,19.7897349 L9.98313253,10.8350361 L18.9378313,19.7897831 C19.0554217,19.9073735 19.2096867,19.9662169 19.3638554,19.9662169 C19.5179759,19.9662169 19.6721446,19.9073735 19.7898313,19.7897831 C20.0250602,19.5545542 20.0250602,19.1731084 19.7898313,18.9377831 L10.8350843,9.98308434 L19.7898313,1.02838554 C20.0250602,0.793108434 20.0250602,0.411710843 19.7898313,0.176433735 C19.5545542,-0.0588433735 19.1731566,-0.0588433735 18.9378313,0.176433735 L9.98313253,9.13113253 L1.02843373,0.17653012 C0.793156627,-0.058746988 0.411759036,-0.058746988 0.176481928,0.17653012 C-0.0587951807,0.411759036 -0.0587951807,0.793204819 0.176481928,1.02848193 L9.13118072,9.98313253 L0.17653012,18.9377831 C-0.058746988,19.1730602 -0.058746988,19.554506 0.17653012,19.7897349 Z" id="Path"/>
            </g>
        </g>
    </g>
</svg>