<?xml version="1.0" encoding="UTF-8"?>
<!-- Generator: Adobe Illustrator 19.0.0, SVG Export Plug-In . SVG Version: 6.00 Build 0)  -->
<svg version="1.1" id="Capa_1" xmlns="http://www.w3.org/2000/svg" xmlns:xlink="http://www.w3.org/1999/xlink" x="0px" y="0px" viewBox="-503 247 72 74" style="enable-background:new -503 247 72 74;" xml:space="preserve">
<style type="text/css">
	.st0{fill:#FFFFFF;}
</style>
<g>
	<g>
		<g>
			<path class="st0" d="M-478.5,269.1L-478.5,269.1L-478.5,269.1L-478.5,269.1z"/>
		</g>
		<g>
			<path class="st0" d="M-469.5,253.9c-1.3,0-2.6-0.8-3.2-2c-1.5-2.2-2.1-2.8-2.6-3.7c-0.4-0.7-1.1-1.1-1.8-1h-24.5     c-0.4,0-0.8,0.2-1,0.6c-0.2,0.4-0.2,0.8,0.1,1.1l3.3,4.9h23c3.5,0,4,0.4,5.4,2.3c1.6,2.3,3.6,5.8,5.3,5.8h29.4l4.4-6.4     c0.2-0.3,0.3-0.8,0.1-1.1c-0.2-0.4-0.6-0.6-1-0.6C-440.7,253.8-468.7,253.9-469.5,253.9L-469.5,253.9z"/>
		</g>
		<g>
			<path class="st0" d="M-464,302.7l9.2-13.5H-475l9.2,13.5c0.3,0.5,1,0.6,1.5,0.3C-464.2,302.9-464.1,302.8-464,302.7L-464,302.7z"/>
		</g>
		<g>
			<path class="st0" d="M-451.2,281.2c-1.2,0-3.2-0.1-3.7-1.2c-0.4-1-1-2-1.8-2.8c-1.5-1.9-3.6-1.5-5.2-1.5h-22.3l4.5,6.8h16.2     c3.4,0,3.7-0.3,5.1,1.6c1.6,2.2,2.3,4.3,4.2,4.3l5-7.2L-451.2,281.2z"/>
		</g>
		<g>
			<g>
				<path class="st0" d="M-459.7,268.6c-1.3,0-2.6-0.8-3.2-2c-1.5-2.1-2.1-2.8-2.6-3.6c-0.4-0.7-1.1-1.1-1.8-1h-26.6l4.5,6.6h23      c3.5,0,4,0.4,5.4,2.3c1.6,2.3,3.6,5.8,5.3,5.8h9.5l5.5-8L-459.7,268.6z"/>
			</g>
		</g>
		<g>
			<path class="st0" d="M-466.2,262.3C-466.2,262.3-466.2,262.3-466.2,262.3L-466.2,262.3L-466.2,262.3z"/>
		</g>
		<g>
			<g>
				<path class="st0" d="M-482.3,306l-6.9,14.2h-0.1l-6.8-14.2h3l3.9,8.3l3.9-8.3L-482.3,306z"/>
			</g>
			<g>
				<path class="st0" d="M-475,308.3c0.7,0,1.3,0.1,1.9,0.4c0.5,0.3,1,0.6,1.5,1c0.4,0.5,0.8,1,1,1.6c0.5,1.2,0.5,2.5,0,3.7      c-0.2,0.6-0.6,1.1-1,1.6c-0.4,0.4-0.9,0.8-1.5,1.1c-1.2,0.6-2.5,0.6-3.7,0c-0.6-0.3-1.1-0.6-1.5-1.1c-0.4-0.5-0.8-1-1-1.5      c-0.5-1.2-0.5-2.5,0-3.7c0.2-0.6,0.6-1.1,1-1.5c0.4-0.4,0.9-0.8,1.5-1.1C-476.2,308.4-475.6,308.2-475,308.3L-475,308.3z       M-472.1,319.9c1.8-0.8,3.2-2.2,4-3.9c0.8-1.8,0.8-3.9,0-5.7c-0.8-1.8-2.2-3.2-3.9-3.9c-1.8-0.8-3.9-0.8-5.8,0      c-1.8,0.7-3.2,2.2-4,3.9c-0.8,1.8-0.8,3.9,0,5.7c0.8,1.8,2.2,3.2,4,3.9c0.9,0.4,1.9,0.6,2.9,0.6      C-474,320.5-473,320.3-472.1,319.9L-472.1,319.9z"/>
			</g>
			<g>
				<path class="st0" d="M-451.2,312.5v1.4c0,0.2,0,0.3,0,0.5c-0.1,0.9-0.3,1.7-0.7,2.5c-0.4,0.7-0.9,1.4-1.6,2      c-0.7,0.5-1.4,1-2.2,1.2c-0.8,0.3-1.7,0.5-2.6,0.5c-1,0-2-0.2-2.9-0.6c-0.9-0.4-1.7-0.9-2.4-1.6c-0.7-0.7-1.2-1.5-1.6-2.3      c-0.4-0.9-0.6-1.9-0.6-2.9c0-1,0.2-2,0.6-2.9c0.4-0.9,0.9-1.7,1.6-2.3c0.7-0.7,1.5-1.2,2.4-1.6c0.9-0.4,1.9-0.6,2.9-0.6      c1.2,0,2.5,0.3,3.6,0.9c1.1,0.6,2,1.4,2.6,2.5l-2.4,1.4c-0.4-0.6-1-1.1-1.6-1.5c-0.7-0.4-1.4-0.6-2.2-0.6      c-0.6,0-1.3,0.1-1.8,0.4c-0.6,0.3-1.1,0.6-1.5,1.1c-0.4,0.5-0.8,1-1,1.5c-0.5,1.2-0.5,2.5,0,3.7c0.2,0.6,0.6,1.1,1,1.5      c0.4,0.4,0.9,0.8,1.5,1.1c0.6,0.3,1.2,0.4,1.8,0.4c0.5,0,0.9-0.1,1.4-0.2c0.9-0.3,1.7-0.8,2.2-1.6c0.3-0.4,0.5-0.8,0.6-1.2h-5.3      v-2.5L-451.2,312.5z"/>
			</g>
			<g>
				<path class="st0" d="M-446.1,308.4v3.6h6.9v2.5h-6.9v3.3h7.8v2.5h-10.5V306h10.5v2.5L-446.1,308.4z"/>
			</g>
		</g>
	</g>
</g>
</svg>