<svg xmlns="http://www.w3.org/2000/svg" width="72" height="74" viewBox="0 0 72 74"><g><g><g><path fill="#2d2d2d" d="M24.484 22.098h.074l-.099-.086z"/></g><g><path fill="#2d2d2d" d="M33.48 6.886A3.603 3.603 0 0 1 30.3 4.93c-1.472-2.152-2.115-2.816-2.635-3.689a1.945 1.945 0 0 0-1.83-1.008H1.322a1.102 1.102 0 0 0-.967.585c-.189.358-.164.79.064 1.124L3.736 6.86H26.7c3.465 0 4.034.418 5.407 2.336 1.621 2.275 3.576 5.779 5.283 5.779h29.398l4.368-6.406c.23-.332.256-.764.066-1.12a1.09 1.09 0 0 0-.97-.577c-7.967-.049-35.905.012-36.771.012z"/></g><g><path fill="#2d2d2d" d="M38.96 55.725L48.152 42.2H27.96l9.193 13.525a1.09 1.09 0 0 0 1.806 0z"/></g><g><path fill="#2d2d2d" d="M51.846 34.216c-1.237 0-3.18-.062-3.712-1.23a9.226 9.226 0 0 0-1.757-2.778c-1.522-1.857-3.588-1.525-5.172-1.525H18.86l4.504 6.787h16.22c3.39 0 3.712-.295 5.061 1.586 1.584 2.213 2.277 4.254 4.182 4.291l4.95-7.168z"/></g><g><g><path fill="#2d2d2d" d="M43.269 21.599a3.603 3.603 0 0 1-3.18-1.955c-1.473-2.14-2.104-2.816-2.636-3.627a1.92 1.92 0 0 0-1.83-1.033H9.07l4.454 6.578h22.964c3.465 0 4.034.418 5.395 2.336 1.62 2.275 3.588 5.779 5.295 5.779h9.54l5.456-8.017z"/></g></g><g><path fill="#2d2d2d" d="M36.79 15.288a.124.124 0 0 1 .062 0l-.087-.086z"/></g><g><g><path fill="#2d2d2d" d="M20.699 59.02l-6.855 14.213h-.148L6.94 59.02h3.007l3.897 8.25 3.86-8.25z"/></g><g><path fill="#2d2d2d" d="M28.047 61.276a4.2 4.2 0 0 1 1.88.43c.549.25 1.047.596 1.472 1.021.426.451.766.976 1.002 1.55a4.744 4.744 0 0 1 0 3.688 5.073 5.073 0 0 1-.977 1.561 4.86 4.86 0 0 1-1.484 1.07 4.327 4.327 0 0 1-3.71 0 4.86 4.86 0 0 1-1.485-1.07 5.075 5.075 0 0 1-1.002-1.549 4.745 4.745 0 0 1 0-3.689c.235-.563.57-1.08.99-1.524.426-.44.929-.798 1.484-1.058a4.2 4.2 0 0 1 1.818-.491zm2.87 11.656a7.475 7.475 0 0 0 3.96-3.935 7.334 7.334 0 0 0 0-5.741 7.4 7.4 0 0 0-3.947-3.947 7.467 7.467 0 0 0-5.765 0 7.4 7.4 0 0 0-3.96 3.947 7.334 7.334 0 0 0 0 5.741 7.475 7.475 0 0 0 3.96 3.935 7.041 7.041 0 0 0 2.87.578 7.079 7.079 0 0 0 2.883-.578z"/></g><g><path fill="#2d2d2d" d="M51.82 65.46v1.377a4.47 4.47 0 0 1 0 .455 6.425 6.425 0 0 1-.743 2.459 6.832 6.832 0 0 1-1.584 1.967 7.14 7.14 0 0 1-2.227 1.23 7.466 7.466 0 0 1-2.647.466 7.103 7.103 0 0 1-2.883-.577 7.662 7.662 0 0 1-2.364-1.586 7.375 7.375 0 0 1-1.608-2.349 6.97 6.97 0 0 1-.594-2.852c-.005-.99.197-1.97.594-2.877a7.375 7.375 0 0 1 1.608-2.349 7.662 7.662 0 0 1 2.364-1.586 7.103 7.103 0 0 1 2.883-.578 7.274 7.274 0 0 1 3.55.886 7.503 7.503 0 0 1 2.611 2.459l-2.35 1.414a5.578 5.578 0 0 0-1.634-1.537 4.14 4.14 0 0 0-2.177-.615 4.329 4.329 0 0 0-1.832.393 5.394 5.394 0 0 0-1.497 1.058 5.074 5.074 0 0 0-1.002 1.549 4.767 4.767 0 0 0 0 3.688 5.16 5.16 0 0 0 1.002 1.537c.429.443.936.801 1.497 1.058a4.154 4.154 0 0 0 1.832.405c.473.013.946-.054 1.398-.196a4.503 4.503 0 0 0 2.24-1.599 3.68 3.68 0 0 0 .618-1.23h-5.333v-2.458z"/></g><g><path fill="#2d2d2d" d="M56.854 61.41v3.565h6.93v2.46h-6.93v3.344h7.808v2.459H54.12V59h10.542v2.459z"/></g></g></g></g></svg>