<svg version="1.1" id="Capa_1" xmlns="http://www.w3.org/2000/svg" x="0" y="0" viewBox="-503 247 72 74" xml:space="preserve"><style>.st0{fill:#fff}</style><path class="st0" d="M-478.5 269.1zM-469.5 253.9c-1.3 0-2.6-.8-3.2-2-1.5-2.2-2.1-2.8-2.6-3.7-.4-.7-1.1-1.1-1.8-1h-24.5c-.4 0-.8.2-1 .6-.2.4-.2.8.1 1.1l3.3 4.9h23c3.5 0 4 .4 5.4 2.3 1.6 2.3 3.6 5.8 5.3 5.8h29.4l4.4-6.4c.2-.3.3-.8.1-1.1-.2-.4-.6-.6-1-.6-8.1 0-36.1.1-36.9.1zM-464 302.7l9.2-13.5H-475l9.2 13.5c.3.5 1 .6 1.5.3l.3-.3zM-451.2 281.2c-1.2 0-3.2-.1-3.7-1.2-.4-1-1-2-1.8-2.8-1.5-1.9-3.6-1.5-5.2-1.5h-22.3l4.5 6.8h16.2c3.4 0 3.7-.3 5.1 1.6 1.6 2.2 2.3 4.3 4.2 4.3l5-7.2h-2z"/><path class="st0" d="M-459.7 268.6c-1.3 0-2.6-.8-3.2-2-1.5-2.1-2.1-2.8-2.6-3.6-.4-.7-1.1-1.1-1.8-1h-26.6l4.5 6.6h23c3.5 0 4 .4 5.4 2.3 1.6 2.3 3.6 5.8 5.3 5.8h9.5l5.5-8-19-.1zM-466.2 262.3zM-482.3 306l-6.9 14.2h-.1l-6.8-14.2h3l3.9 8.3 3.9-8.3h3zM-475 308.3c.7 0 1.3.1 1.9.4.5.3 1 .6 1.5 1 .4.5.8 1 1 1.6.5 1.2.5 2.5 0 3.7-.2.6-.6 1.1-1 1.6-.4.4-.9.8-1.5 1.1-1.2.6-2.5.6-3.7 0-.6-.3-1.1-.6-1.5-1.1-.4-.5-.8-1-1-1.5-.5-1.2-.5-2.5 0-3.7.2-.6.6-1.1 1-1.5.4-.4.9-.8 1.5-1.1.6-.4 1.2-.6 1.8-.5zm2.9 11.6a8 8 0 004-3.9c.8-1.8.8-3.9 0-5.7-.8-1.8-2.2-3.2-3.9-3.9-1.8-.8-3.9-.8-5.8 0-1.8.7-3.2 2.2-4 3.9-.8 1.8-.8 3.9 0 5.7.8 1.8 2.2 3.2 4 3.9.9.4 1.9.6 2.9.6.9 0 1.9-.2 2.8-.6zM-451.2 312.5v1.9c-.1.9-.3 1.7-.7 2.5-.4.7-.9 1.4-1.6 2-.7.5-1.4 1-2.2 1.2-.8.3-1.7.5-2.6.5-1 0-2-.2-2.9-.6-.9-.4-1.7-.9-2.4-1.6-.7-.7-1.2-1.5-1.6-2.3-.4-.9-.6-1.9-.6-2.9s.2-2 .6-2.9c.4-.9.9-1.7 1.6-2.3.7-.7 1.5-1.2 2.4-1.6.9-.4 1.9-.6 2.9-.6 1.2 0 2.5.3 3.6.9 1.1.6 2 1.4 2.6 2.5l-2.4 1.4c-.4-.6-1-1.1-1.6-1.5-.7-.4-1.4-.6-2.2-.6-.6 0-1.3.1-1.8.4-.6.3-1.1.6-1.5 1.1-.4.5-.8 1-1 1.5-.5 1.2-.5 2.5 0 3.7.2.6.6 1.1 1 1.5.4.4.9.8 1.5 1.1.6.3 1.2.4 1.8.4.5 0 .9-.1 1.4-.2.9-.3 1.7-.8 2.2-1.6.3-.4.5-.8.6-1.2h-5.3v-2.5l8.2-.2zM-446.1 308.4v3.6h6.9v2.5h-6.9v3.3h7.8v2.5h-10.5V306h10.5v2.5l-7.8-.1z"/></svg>