<?xml version="1.0" encoding="UTF-8"?>
<!-- Generator: Adobe Illustrator 19.0.0, SVG Export Plug-In . SVG Version: 6.00 Build 0)  -->
<svg version="1.1" id="Capa_1" xmlns="http://www.w3.org/2000/svg" xmlns:xlink="http://www.w3.org/1999/xlink" x="0px" y="0px" viewBox="-295 389 21 15" style="enable-background:new -295 389 21 15;" xml:space="preserve">
<style type="text/css">
	.st0{fill:#696969;}
</style>
<g>
	<g>
		<path class="st0" d="M-280.9,389.5c-0.3-0.3-0.7-0.3-1,0c0,0,0,0,0,0c-0.3,0.3-0.3,0.7,0,1l5.3,5.2h-17.4c-0.4,0-0.7,0.4-0.7,0.8    c0,0.4,0.3,0.7,0.7,0.7h17.4l-5.3,5.2c-0.3,0.3-0.3,0.7,0,1c0.3,0.3,0.8,0.3,1,0l6.5-6.5c0.3-0.3,0.3-0.7,0-1c0,0,0,0,0,0    L-280.9,389.5z"/>
	</g>
</g>
</svg>